<?xml version="1.0" standalone="no"?>
<!DOCTYPE svg PUBLIC "-//W3C//DTD SVG 20010904//EN"
 "http://www.w3.org/TR/2001/REC-SVG-20010904/DTD/svg10.dtd">
<svg version="1.0" xmlns="http://www.w3.org/2000/svg"
 width="347.000000pt" height="347.000000pt" viewBox="0 0 347.000000 347.000000"
 preserveAspectRatio="xMidYMid meet">

<g transform="translate(0.000000,347.000000) scale(0.100000,-0.100000)"
fill="#000000" stroke="none">
<path d="M1510 3456 c-202 -29 -374 -83 -550 -171 -762 -382 -1133 -1256 -879
-2070 92 -297 297 -606 528 -799 86 -71 174 -136 185 -136 3 0 3 28 1 63 -12
185 -17 266 -30 512 -19 340 -19 321 7 345 17 16 35 20 85 20 35 0 63 1 63 3
0 2 -10 45 -21 97 -24 106 -29 243 -11 278 16 29 52 28 80 -1 19 -20 22 -35
22 -98 0 -51 -3 -69 -10 -59 -8 12 -10 11 -10 -7 0 -13 4 -23 8 -23 5 0 14
-40 21 -90 10 -69 16 -90 28 -90 13 0 14 8 9 43 -4 23 -9 53 -11 66 -2 14 1
34 7 45 7 13 10 79 9 174 -1 117 3 178 18 255 10 56 24 134 31 173 24 146 86
229 199 264 58 18 73 19 165 9 162 -18 340 -22 493 -10 129 9 151 8 240 -10
220 -45 227 -57 294 -479 7 -49 11 -185 13 -442 0 -61 4 -88 12 -88 11 0 15
19 30 138 4 28 10 52 15 52 5 0 9 5 9 11 0 5 -4 7 -10 4 -6 -4 -10 20 -10 63
0 64 3 73 30 102 24 26 33 29 48 21 52 -28 51 -139 -5 -379 -5 -21 -2 -22 55
-22 44 0 66 -5 83 -19 l23 -19 -18 -363 c-10 -200 -20 -394 -23 -432 -3 -37
-2 -67 2 -67 10 0 135 101 199 160 173 159 350 435 436 675 355 1003 -274
2091 -1320 2285 -147 28 -405 35 -540 16z"/>
<path d="M1281 1834 c-55 -20 -111 -55 -111 -71 0 -23 20 -24 86 -3 78 24 155
26 214 5 56 -20 87 -19 99 3 14 26 -1 43 -56 64 -59 22 -170 23 -232 2z"/>
<path d="M2055 1843 c-55 -11 -95 -36 -95 -59 0 -37 27 -44 88 -23 71 25 144
24 226 -1 66 -21 86 -20 86 3 0 18 -62 56 -116 73 -44 13 -144 17 -189 7z"/>
<path d="M1320 1621 c-45 -14 -88 -40 -109 -67 -34 -43 -24 -46 25 -9 25 19
49 35 54 35 5 0 4 -16 -2 -36 -13 -48 -3 -82 35 -121 26 -28 38 -33 76 -33 34
0 42 3 33 12 -9 9 -4 16 20 31 22 13 33 16 36 8 7 -22 32 10 38 50 4 22 9 39
12 39 3 0 18 -12 33 -26 25 -24 27 -25 22 -6 -8 33 -96 109 -139 121 -44 12
-97 13 -134 2z m60 -46 c10 -12 10 -18 0 -30 -25 -30 -61 -7 -46 30 3 8 12 15
19 15 8 0 20 -7 27 -15z"/>
<path d="M2070 1617 c-41 -13 -130 -98 -130 -124 1 -15 5 -13 23 10 13 15 25
27 29 27 3 0 8 -18 12 -39 4 -25 17 -51 37 -70 25 -26 39 -31 76 -31 37 0 43
2 34 14 -9 10 -6 17 13 30 33 21 50 21 42 -1 -6 -15 -4 -15 13 1 26 24 37 81
23 118 -5 15 -8 28 -6 28 16 0 65 -34 83 -56 17 -22 21 -23 21 -9 0 10 -17 35
-39 55 -57 55 -148 73 -231 47z m30 -57 c0 -24 -26 -38 -42 -22 -16 16 -2 42
22 42 13 0 20 -7 20 -20z"/>
<path d="M896 1545 c7 -17 74 -87 74 -76 0 16 -63 91 -76 91 -2 0 -1 -7 2 -15z"/>
<path d="M2613 1543 c-11 -10 -28 -33 -37 -52 l-18 -33 34 34 c47 47 62 68 51
68 -6 0 -19 -8 -30 -17z"/>
<path d="M1481 26 c2 -2 55 -9 118 -16 114 -12 311 -6 311 10 0 4 -98 8 -217
9 -119 1 -215 -1 -212 -3z"/>
</g>
</svg>
